<?xml version="1.0" encoding="UTF-8"?>
<svg id="Design" xmlns="http://www.w3.org/2000/svg" viewBox="0 0 715.91 51.19">
  <defs>
    <style>
      .cls-1 {
        fill: none;
        stroke: #a69933;
        stroke-miterlimit: 10;
        stroke-width: 1.08px;
      }

      .cls-2 {
        fill: #a69933;
      }
    </style>
  </defs>
  <line class="cls-1" x1="23.64" y1="21.46" x2="687.68" y2="21.46"/>
  <path class="cls-2" d="M20.56,22.85c0,.4.32.72.72.72.16,0,.31-.05.43-.14l1.75-1.75s.08.07.14.08l-.58,2.2-.05.18c-.04.28.1.57.36.71.35.2.79.08.98-.26.08-.14.11-.28.1-.43h0s-.06-.23-.06-.23h0s0-.02,0-.02h0s-.57-2.15-.57-2.15c.05-.01.11-.04.14-.08l1.74,1.74s.05.04.08.05c.35.2.79.08.98-.27.2-.35.08-.79-.26-.98-.03-.02-.06-.03-.09-.04h0l-.2-.05h-.03s-2.14-.58-2.14-.58c0-.03.01-.05.01-.08s0-.05-.01-.08l2.19-.58.18-.05s.06-.02.09-.04c.35-.2.46-.64.26-.99-.2-.35-.64-.46-.98-.26-.03.02-.05.04-.08.05l-.07.07-1.67,1.67s-.08-.07-.14-.08l.58-2.19.05-.18h0s0-.07,0-.1c0-.4-.33-.72-.73-.72s-.72.32-.72.72c0,.04,0,.07,0,.1h0s0,.02,0,.02l.04.13v.04s.59,2.19.59,2.19c-.05.01-.1.04-.14.08l-1.63-1.63-.09-.09c-.23-.19-.55-.23-.82-.07-.35.2-.46.64-.26.98.08.14.2.25.35.31h0l.18.05,2.19.58s-.01.05-.01.08,0,.05.01.08l-2.2.6h-.02l-.15.04c-.26.11-.44.37-.44.67Z"/>
  <path class="cls-2" d="M690.75,22.85c0,.4-.32.72-.72.72-.16,0-.31-.05-.43-.14l-1.75-1.75s-.08.07-.14.08l.58,2.2.05.18c.04.28-.1.57-.36.71-.35.2-.79.08-.98-.26-.08-.14-.11-.28-.1-.43h0s.06-.23.06-.23h0s0-.02,0-.02h0s.57-2.15.57-2.15c-.05-.01-.11-.04-.14-.08l-1.74,1.74s-.05.04-.08.05c-.35.2-.79.08-.98-.27-.2-.35-.08-.79.26-.98.03-.02.06-.03.09-.04h0l.2-.05h.03s2.14-.58,2.14-.58c0-.03-.01-.05-.01-.08s0-.05.01-.08l-2.19-.58-.18-.05s-.06-.02-.09-.04c-.35-.2-.46-.64-.26-.99.2-.35.64-.46.98-.26.03.02.05.04.08.05l.07.07,1.67,1.67s.08-.07.14-.08l-.58-2.19-.05-.18h0s0-.07,0-.1c0-.4.33-.72.73-.72s.72.32.72.72c0,.04,0,.07,0,.1h0s0,.02,0,.02l-.04.13v.04s-.59,2.19-.59,2.19c.05.01.1.04.14.08l1.63-1.63.09-.09c.23-.19.55-.23.82-.07.35.2.46.64.26.98-.08.14-.2.25-.35.31h0l-.18.05-2.19.58s.01.05.01.08,0,.05-.01.08l2.2.6h.02l.15.04c.26.11.44.37.44.67Z"/>
</svg>