<?xml version="1.0" encoding="UTF-8"?>
<svg id="Design" xmlns="http://www.w3.org/2000/svg" viewBox="0 0 402.38 217.7">
  <defs>
    <style>
      .cls-1 {
        fill: #a59833;
      }

      .cls-2 {
        fill: #40492d;
      }
    </style>
  </defs>
  <g>
    <path class="cls-2" d="M56.57,166.7c2.29,1.58,4.74,2.09,6.62,2.09s3.31-.41,4.13-.76c.46-2.19.56-5.15.56-7.69v-24.4h4.79v23.28c0,7.54-2.85,12.99-10.39,12.99-2.04,0-3.77-.41-4.48-.66l-1.48-4.53.25-.31Z"/>
    <path class="cls-2" d="M87.5,171.59h-5.04v-.25l14.47-32.1-1.07-2.55v-.25l4.53-.92,15.69,36.07h-5.25l-5.25-12.23h-14.27l-3.36,8.51-.46,3.72ZM98.09,141.99l-5.81,14.88h12.23l-6.42-14.88Z"/>
    <path class="cls-2" d="M141.71,172.35c-5.76,0-10.04-1.22-12.99-4.02-3.21-3.01-4.99-8.1-4.99-13.91s1.63-11.82,5.25-15.23c3.26-3.06,8.71-4.02,13.76-4.02,3.72,0,6.98.61,8.81,1.12l1.58,4.38-.31.25c-2.7-1.43-6.62-2.5-11.51-2.5s-8.2.82-9.78,1.48c-1.53,3.21-2.6,8.92-2.6,14.57,0,4.53.82,9.53,3.72,12.33,1.99,1.94,4.99,2.9,9.53,2.9,2.45,0,5.3-.25,7.34-.66v-10.65l-.31-2.04.15-.25h7.64v.25l-3.11,2.96v8.87l.46,2.24c-3.87,1.07-8.3,1.94-12.64,1.94Z"/>
    <path class="cls-2" d="M169.99,171.59h-5.04v-.25l14.47-32.1-1.07-2.55v-.25l4.53-.92,15.69,36.07h-5.25l-5.25-12.23h-14.27l-3.36,8.51-.46,3.72ZM180.58,141.99l-5.81,14.88h12.23l-6.42-14.88Z"/>
    <path class="cls-2" d="M208.66,135.92h12.38c6.57,0,10.55,1.17,13.4,4.03,3.52,3.57,4.48,8.92,4.48,13.35,0,5.71-1.53,10.55-4.64,13.71-4.28,4.28-11.67,4.59-17.93,4.59h-7.69v-35.66ZM231.74,166.04c1.38-3.06,2.04-7.03,2.04-12.28,0-5.55-.82-9.88-3.36-12.48-1.99-1.88-4.89-2.8-9.68-2.8-2.39,0-5.25.2-7.29.51v29.24c1.73.36,3.77.51,5.86.51,5.4,0,9.94-.97,12.43-2.7Z"/>
    <path class="cls-2" d="M276.47,154.88h-20.33v16.71h-4.79v-35.66h4.79v16.41h20.33v-16.41h4.79v35.66h-4.79v-16.71Z"/>
    <path class="cls-2" d="M296.39,171.59h-5.04v-.25l14.47-32.1-1.07-2.55v-.25l4.53-.92,15.69,36.07h-5.25l-5.25-12.23h-14.27l-3.36,8.51-.46,3.72ZM306.99,141.99l-5.81,14.88h12.23l-6.42-14.88Z"/>
  </g>
  <g>
    <path class="cls-1" d="M203.64,99.2c-2.32-2.32-2.19-5.55.06-7.8,2.06-2.06,5.29-2.58,7.61-.26,2.58,2.58.84,5.09,2,6.25,1.1,1.1,2.97.13,4.32-1.22,2.38-2.38,1.22-4.71-.65-6.58l-38.1-38.1c-2-2-2.45-2.32-3.03-1.74l-2.45,2.45c-.45.45-.71.45-.97.19s-.19-.45.26-.9l11.15-11.15c.45-.45.65-.39.84-.2l34.82,34.82c6.25,6.25,6.32,14.44-1.35,22.11-4.13,4.13-10.77,5.87-14.51,2.13Z"/>
    <path class="cls-1" d="M149.89,97.07c-7.67-7.67-7.61-15.86-1.35-22.11l34.82-34.82c.19-.19.39-.26.84.2l11.15,11.15c.45.45.52.65.26.9-.26.26-.52.26-.97-.19l-2.45-2.45c-.58-.58-1.03-.26-3.03,1.74l-38.1,38.1c-1.87,1.87-3.03,4.19-.65,6.58,1.35,1.35,3.22,2.32,4.32,1.22,1.16-1.16-.58-3.67,2-6.25,2.32-2.32,5.55-1.8,7.61.26,2.26,2.26,2.38,5.48.06,7.8-3.74,3.74-10.38,2-14.51-2.13Z"/>
    <path class="cls-1" d="M155.45,90.24c2.32-2.32,5.55-2.19,7.8.06,2.06,2.06,2.58,5.29.26,7.61-2.58,2.58-5.09.84-6.25,2-1.1,1.1-.13,2.97,1.22,4.32,2.38,2.38,4.71,1.22,6.58-.65l38.1-38.1c2-2,2.32-2.45,1.74-3.03l-2.45-2.45c-.45-.45-.45-.71-.19-.97.26-.26.45-.19.9.26l11.15,11.15c.45.45.39.65.2.84l-34.82,34.82c-6.25,6.25-14.44,6.32-22.11-1.35-4.13-4.13-5.87-10.77-2.13-14.51Z"/>
    <path class="cls-1" d="M210.47,104.75c-7.67,7.67-15.86,7.61-22.11,1.35l-34.82-34.82c-.19-.19-.26-.39.2-.84l11.15-11.15c.45-.45.65-.52.9-.26.26.26.26.52-.19.97l-2.45,2.45c-.58.58-.26,1.03,1.74,3.03l38.1,38.1c1.87,1.87,4.19,3.03,6.58.65,1.35-1.35,2.32-3.22,1.22-4.32-1.16-1.16-3.67.58-6.25-2-2.32-2.32-1.8-5.55.26-7.61,2.26-2.26,5.48-2.38,7.8-.06,3.74,3.74,2,10.38-2.13,14.51Z"/>
    <path class="cls-1" d="M210.08,81.75c-.45.45-.65.39-.84.2l-34.82-34.82c-6.25-6.25-6.32-14.44,1.35-22.11,4.13-4.13,10.77-5.87,14.51-2.13,2.32,2.32,2.19,5.55-.06,7.8-2.06,2.06-5.29,2.58-7.61.26-2.58-2.58-.84-5.09-2-6.25-1.1-1.1-2.97-.13-4.32,1.22-2.38,2.38-1.22,4.71.65,6.58l38.1,38.1-4.96,11.15Z"/>
  </g>
</svg>